<mxfile host="app.diagrams.net" agent="Mozilla/5.0 (Windows NT 10.0; Win64; x64) AppleWebKit/537.36 (KHTML, like Gecko) Chrome/130.0.0.0 Safari/537.36 OPR/115.0.0.0" version="25.0.3">
  <diagram name="Страница — 1" id="1Sx2GP6Lfqg84PQy3bX0">
    <mxGraphModel dx="1823" dy="566" grid="1" gridSize="10" guides="1" tooltips="1" connect="1" arrows="1" fold="1" page="1" pageScale="1" pageWidth="827" pageHeight="1169" math="0" shadow="0">
      <root>
        <mxCell id="0" />
        <mxCell id="1" parent="0" />
        <mxCell id="PD_ZAIRVsSYpbJg3dbs0-1" value="Minikube Cluster" style="swimlane;whiteSpace=wrap;html=1;" vertex="1" parent="1">
          <mxGeometry x="20" y="120" width="380" height="360" as="geometry" />
        </mxCell>
        <mxCell id="PD_ZAIRVsSYpbJg3dbs0-2" value="" style="rounded=0;whiteSpace=wrap;html=1;" vertex="1" parent="PD_ZAIRVsSYpbJg3dbs0-1">
          <mxGeometry x="220" y="60" width="120" height="110" as="geometry" />
        </mxCell>
        <mxCell id="PD_ZAIRVsSYpbJg3dbs0-3" value="Pod" style="rounded=1;whiteSpace=wrap;html=1;" vertex="1" parent="PD_ZAIRVsSYpbJg3dbs0-1">
          <mxGeometry x="230" y="90" width="100" height="60" as="geometry" />
        </mxCell>
        <mxCell id="PD_ZAIRVsSYpbJg3dbs0-4" value="Node" style="text;html=1;align=center;verticalAlign=middle;whiteSpace=wrap;rounded=0;" vertex="1" parent="PD_ZAIRVsSYpbJg3dbs0-1">
          <mxGeometry x="250" y="60" width="60" height="30" as="geometry" />
        </mxCell>
        <mxCell id="PD_ZAIRVsSYpbJg3dbs0-5" value="" style="rounded=0;whiteSpace=wrap;html=1;" vertex="1" parent="PD_ZAIRVsSYpbJg3dbs0-1">
          <mxGeometry x="220" y="210" width="120" height="110" as="geometry" />
        </mxCell>
        <mxCell id="PD_ZAIRVsSYpbJg3dbs0-6" value="Pod" style="rounded=1;whiteSpace=wrap;html=1;" vertex="1" parent="PD_ZAIRVsSYpbJg3dbs0-1">
          <mxGeometry x="230" y="240" width="100" height="60" as="geometry" />
        </mxCell>
        <mxCell id="PD_ZAIRVsSYpbJg3dbs0-7" value="Node" style="text;html=1;align=center;verticalAlign=middle;whiteSpace=wrap;rounded=0;" vertex="1" parent="PD_ZAIRVsSYpbJg3dbs0-1">
          <mxGeometry x="250" y="210" width="60" height="30" as="geometry" />
        </mxCell>
        <mxCell id="PD_ZAIRVsSYpbJg3dbs0-9" style="edgeStyle=orthogonalEdgeStyle;rounded=0;orthogonalLoop=1;jettySize=auto;html=1;exitX=1;exitY=0.5;exitDx=0;exitDy=0;entryX=0;entryY=0.5;entryDx=0;entryDy=0;" edge="1" parent="PD_ZAIRVsSYpbJg3dbs0-1" source="PD_ZAIRVsSYpbJg3dbs0-8" target="PD_ZAIRVsSYpbJg3dbs0-3">
          <mxGeometry relative="1" as="geometry">
            <Array as="points">
              <mxPoint x="180" y="180" />
              <mxPoint x="180" y="120" />
            </Array>
          </mxGeometry>
        </mxCell>
        <mxCell id="PD_ZAIRVsSYpbJg3dbs0-8" value="Service" style="ellipse;whiteSpace=wrap;html=1;" vertex="1" parent="PD_ZAIRVsSYpbJg3dbs0-1">
          <mxGeometry x="20" y="155" width="90" height="50" as="geometry" />
        </mxCell>
        <mxCell id="PD_ZAIRVsSYpbJg3dbs0-14" value="Port: 3000" style="text;html=1;align=center;verticalAlign=middle;whiteSpace=wrap;rounded=0;" vertex="1" parent="PD_ZAIRVsSYpbJg3dbs0-1">
          <mxGeometry x="110" y="155" width="60" height="25" as="geometry" />
        </mxCell>
        <mxCell id="PD_ZAIRVsSYpbJg3dbs0-10" value="" style="endArrow=none;html=1;rounded=0;" edge="1" parent="1">
          <mxGeometry width="50" height="50" relative="1" as="geometry">
            <mxPoint x="200" y="300" as="sourcePoint" />
            <mxPoint x="200" y="390" as="targetPoint" />
          </mxGeometry>
        </mxCell>
        <mxCell id="PD_ZAIRVsSYpbJg3dbs0-11" value="" style="endArrow=classic;html=1;rounded=0;entryX=0;entryY=0.5;entryDx=0;entryDy=0;" edge="1" parent="1" target="PD_ZAIRVsSYpbJg3dbs0-6">
          <mxGeometry width="50" height="50" relative="1" as="geometry">
            <mxPoint x="200" y="390" as="sourcePoint" />
            <mxPoint x="210" y="310" as="targetPoint" />
          </mxGeometry>
        </mxCell>
        <mxCell id="PD_ZAIRVsSYpbJg3dbs0-13" style="edgeStyle=orthogonalEdgeStyle;rounded=0;orthogonalLoop=1;jettySize=auto;html=1;exitX=1;exitY=0.5;exitDx=0;exitDy=0;" edge="1" parent="1" source="PD_ZAIRVsSYpbJg3dbs0-12" target="PD_ZAIRVsSYpbJg3dbs0-8">
          <mxGeometry relative="1" as="geometry" />
        </mxCell>
        <mxCell id="PD_ZAIRVsSYpbJg3dbs0-12" value="Web browser" style="rounded=0;whiteSpace=wrap;html=1;" vertex="1" parent="1">
          <mxGeometry x="-190" y="270" width="120" height="60" as="geometry" />
        </mxCell>
        <mxCell id="PD_ZAIRVsSYpbJg3dbs0-15" value="&lt;span style=&quot;color: rgb(0, 0, 0); font-family: Helvetica; font-size: 12px; font-style: normal; font-variant-ligatures: normal; font-variant-caps: normal; font-weight: 400; letter-spacing: normal; orphans: 2; text-align: center; text-indent: 0px; text-transform: none; widows: 2; word-spacing: 0px; -webkit-text-stroke-width: 0px; white-space: normal; background-color: rgb(251, 251, 251); text-decoration-thickness: initial; text-decoration-style: initial; text-decoration-color: initial; display: inline !important; float: none;&quot;&gt;Port: 3000&lt;/span&gt;" style="text;whiteSpace=wrap;html=1;" vertex="1" parent="1">
          <mxGeometry x="-50" y="270" width="70" height="40" as="geometry" />
        </mxCell>
      </root>
    </mxGraphModel>
  </diagram>
</mxfile>
